<svg xmlns="http://www.w3.org/2000/svg" version="1.1" xmlns:xlink="http://www.w3.org/1999/xlink" xmlns:svgjs="http://svgjs.dev/svgjs" width="128" height="128" viewBox="0 0 128 128"><g transform="matrix(0.8046875,0,0,0.8046875,12.675156593406598,2.64647177419355)"><svg viewBox="0 0 130 155" data-background-color="#1f2d5a" preserveAspectRatio="xMidYMid meet" height="152" width="128" xmlns="http://www.w3.org/2000/svg" xmlns:xlink="http://www.w3.org/1999/xlink"><g id="tight-bounds" transform="matrix(1,0,0,1,-0.22107142857143458,0.25)"><svg viewBox="0 0 130.44214285714287 154.5" height="154.5" width="130.44214285714287"><g><svg viewBox="0 0 130.44214285714287 154.5" height="154.5" width="130.44214285714287"><g><svg viewBox="0 0 130.44214285714287 154.5" height="154.5" width="130.44214285714287"><g id="textblocktransform"><svg viewBox="0 0 130.44214285714287 154.5" height="154.5" width="130.44214285714287" id="textblock"><g><svg viewBox="0 0 130.44214285714287 154.5" height="154.5" width="130.44214285714287"><g transform="matrix(1,0,0,1,0,0)"><svg width="130.44214285714287" viewBox="5.7 -35 29.55 35" height="154.5" data-palette-color="#fbfbfb"><path d="M30.85 0L16.55-16.45 9.4-9.2 9.4 0 5.7 0 5.7-35 9.4-35 9.4-13.85 29.95-35 34.2-35 19.05-19.15 35.25 0 30.85 0Z" opacity="1" transform="matrix(1,0,0,1,0,0)" fill="#fbfbfb" class="wordmark-text-0" data-fill-palette-color="primary" id="text-0"></path></svg></g></svg></g></svg></g></svg></g><g></g></svg></g><defs></defs></svg><rect width="130.44214285714287" height="154.5" fill="none" stroke="none" visibility="hidden"></rect></g></svg></g></svg>